# xmcd
#
# Track frame offsets:
#	150
#	13626
#	35099
#	51459
#	67970
#	87817
#	105979
#	132999
#	146016
#	167440
#	186110
#	203602
#	221982
#	241000
#
# Disc length: 3422 seconds
#
# Revision: 2
# Processed by: cddbd v1.5.2PL0 Copyright (c) Steve Scherf et al.
# Submitted via: audiograbber 1.83.01
#
DISCID=c00d5c0e
DTITLE=Eric Clapton - Happy Xmas
DYEAR=2018
DGENRE=Blues Rock
TTITLE0=White Christmas
TTITLE1=Away In A Manger (Once In Royal David's City)
TTITLE2=For Love On Christmas Day
TTITLE3=Everyday Will Be Like A Holiday
TTITLE4=Christmas Tears
TTITLE5=Home For The Holidays
TTITLE6=Jingle Bells
TTITLE7=Christmas In My Hometown
TTITLE8=It's Christmas
TTITLE9=Sentimental Moments
TTITLE10=Lonesome Christmas
TTITLE11=Silent Night
TTITLE12=Merry Christmas Baby
TTITLE13=Have Yourself A Merry Little Christmas
EXTD=
EXTT0=
EXTT1=
EXTT2=
EXTT3=
EXTT4=
EXTT5=
EXTT6=
EXTT7=
EXTT8=
EXTT9=
EXTT10=
EXTT11=
EXTT12=
EXTT13=
PLAYORDER=
